<svg width="450" height="450" xmlns="http://www.w3.org/2000/svg">
 <!-- Created with Method Draw - http://github.com/duopixel/Method-Draw/ -->
 <g>
  <title>background</title>
  <rect fill="#fff" id="canvas_background" height="452" width="452" y="-1" x="-1"/>
  <g display="none" overflow="visible" y="0" x="0" height="100%" width="100%" id="canvasGrid">
   <rect fill="url(#gridpattern)" stroke-width="0" y="0" x="0" height="100%" width="100%"/>
  </g>
 </g>
 <g>
  <title>Layer 1</title>
  <line stroke-linecap="undefined" stroke-linejoin="undefined" id="svg_1" y2="33.2857" x2="63.71412" y1="432.2857" x1="63.71412" stroke-width="1.5" stroke="#000" fill="none"/>
  <line stroke-linecap="undefined" stroke-linejoin="undefined" id="svg_2" y2="88.71344" x2="417.42848" y1="88.71344" x1="38.42848" stroke-width="1.5" stroke="#000" fill="none"/>
  <line stroke-linecap="undefined" stroke-linejoin="undefined" id="svg_3" y2="89.99944" x2="63.28503" y1="183.71367" x1="18.99976" stroke-width="2" stroke="#bf0000" fill="none"/>
  <line stroke-linecap="undefined" stroke-linejoin="undefined" id="svg_7" y2="183.28604" x2="21.85659" y1="340.14293" x1="147.9995" stroke-width="2" stroke="#bf0000" fill="none"/>
  <line transform="rotate(0.731442, 159.857, 228.643)" stroke-linecap="undefined" stroke-linejoin="undefined" id="svg_9" y2="337.77935" x2="150.46449" y1="119.5068" x1="169.24985" stroke-width="2" stroke="#005fbf" fill="none"/>
  <path d="m298.64266,221.85732c2,0 3,0 6,0c4,0 6.02676,0.22975 7,0c2.17624,-0.51375 4.38687,-1.9176 7,-3c1.84775,-0.76537 5.41885,-2.41885 7,-4c1.58115,-1.58115 4,-3 6,-5c1,-1 2.95517,-3.54915 4,-7c0.28979,-0.95709 1.45877,-3.47125 3,-10c1.14877,-4.86624 0,-8 0,-12c0,-2 2,-7 2,-9c0,-3 0,-5 0,-6c0,-2 0,-3 0,-4c0,-1 0,-2 0,-4c0,-2 0,-4 0,-6c0,-1 -3,-4 -5,-4c-1,0 -1,-2 -3,-2c-1,0 -3,0 -5,0c-2,0 -3,0 -4,0c-3,0 -3,-1 -5,-1c-3,0 -4,0 -6,0c-1,0 -3,0 -4,0c-2,0 -3,0 -4,0c-2,0 -3,0 -5,0c-1,0 -2,0 -3,0c-2,0 -3.05164,-0.64073 -7,0c-3.12143,0.50654 -3.02582,2.67963 -5,3c-3.12143,0.50654 -3,3 -3,4c0,4 -3.41885,4.25658 -5,9c-0.63245,1.89737 0,3 0,5c0,3 -2,3 -2,4c0,1 0,3 0,4c0,2 0,4 0,7c0,2 -1,4 -1,6c0,1 1,1 2,1c2,0 3,0 4,0c1,0 0.58578,0.58578 2,2c1.41422,1.41422 2.29291,0.29289 3,1c1.41422,1.41422 1,2 1,1c0,-1 0,-5 0,-7c0,-3 0,-5 0,-8c0,-2 -2.11145,-10.80591 3,-8c1.96014,1.07602 -3.08032,5.37641 -7,7c-1.84775,0.76537 -4.64749,1.97251 -9,3c-0.97324,0.22975 -4.98093,-1.45928 -8,3c-1.12125,1.65614 -1.4588,1.69344 -2,3c-0.38269,0.92388 0,1 1,1c1,0 2,0 4,0c1,0 3.29291,-0.70711 4,0c1.41422,1.41422 1.58578,0.58578 3,2c0.70709,0.70711 0.29291,1.29289 1,2c1.41422,1.41422 3.29291,-0.70711 4,0c0.70709,0.70711 2,1 4,1l1,0l0,1" id="svg_12" stroke-width="2" stroke="#4c4c4c" fill="none"/>
  <path d="m309.64266,169.85732c0,3 0,7 0,8c0,2 0,5 0,6c0,2 0,5 0,7c0,1 0,1 0,2l0,1l0,1l0,3" id="svg_13" stroke-width="2" stroke="#4c4c4c" fill="none"/>
  <path d="m325.64266,181.85732c-2,0 -3,0 -5,0c-5,0 -8.29291,2.29289 -9,3c-0.70709,0.70711 -3,0 -5,0c-1,0 -2,0 -3,0c-1,0 -2,0 -2,0c-1,0 -2,0 -3,0c-1,0 -2,0 -3,0l-2,0" id="svg_14" stroke-width="2" stroke="#4c4c4c" fill="none"/>
  <text stroke-dasharray="5,2,2,2" font-style="normal" xml:space="preserve" text-anchor="start" font-family="Helvetica, Arial, sans-serif" font-size="24" id="svg_15" y="121.28487" x="402.35708" fill-opacity="null" stroke-width="0" stroke="#4c4c4c" fill="#000000">x</text>
  <text stroke-dasharray="5,2,2,2" xml:space="preserve" text-anchor="start" font-family="Helvetica, Arial, sans-serif" font-size="24" id="svg_16" y="38.28571" x="43.21416" fill-opacity="null" stroke-width="0" stroke="#4c4c4c" fill="#000000">y</text>
  <line transform="rotate(0.731442, 144.143, 360.929)" stroke-linecap="undefined" stroke-linejoin="undefined" id="svg_17" y2="382.26685" x2="140.77274" y1="339.59137" x1="147.51296" stroke-width="2" stroke="#00bf00" fill="none"/>
  <line transform="rotate(-82, 155.571, 385.501)" stroke-linecap="undefined" stroke-linejoin="undefined" id="svg_18" y2="398.58433" x2="154.7713" y1="372.41696" x1="156.37151" stroke-width="2" stroke="#00bf00" fill="none"/>
  <text font-style="italic" xml:space="preserve" text-anchor="start" font-family="Helvetica, Arial, sans-serif" font-size="20" id="svg_19" y="133.71403" x="14.42802" fill-opacity="null" stroke-width="0" stroke="#00bf00" fill="#000000">L1</text>
  <text font-style="italic" xml:space="preserve" text-anchor="start" font-family="Helvetica, Arial, sans-serif" font-size="20" id="svg_20" y="110.85682" x="114.42825" fill-opacity="null" stroke-width="0" stroke="#00bf00" fill="#000000">L1</text>
  <text font-style="italic" xml:space="preserve" text-anchor="start" font-family="Helvetica, Arial, sans-serif" font-size="20" id="svg_21" y="241.14284" x="168.14268" fill-opacity="null" stroke-width="0" stroke="#00bf00" fill="#000000">L2</text>
  <text font-style="italic" xml:space="preserve" text-anchor="start" font-family="Helvetica, Arial, sans-serif" font-size="20" id="svg_22" y="243.99999" x="26.99947" fill-opacity="null" stroke-width="0" stroke="#00bf00" fill="#000000">L2</text>
  <text font-style="italic" xml:space="preserve" text-anchor="start" font-family="Helvetica, Arial, sans-serif" font-size="20" id="svg_23" y="409.14324" x="135.57118" fill-opacity="null" stroke-width="0" stroke="#00bf00" fill="#000000">L3x</text>
  <text font-style="italic" xml:space="preserve" text-anchor="start" font-family="Helvetica, Arial, sans-serif" font-size="20" id="svg_24" y="364.57169" x="104.14253" fill-opacity="null" stroke-width="0" stroke="#00bf00" fill="#000000">L3y</text>
  <text xml:space="preserve" text-anchor="start" font-family="Helvetica, Arial, sans-serif" font-size="20" id="svg_25" y="107.42825" x="172.71416" fill-opacity="null" stroke-opacity="null" stroke-width="0" stroke="#000" fill="#000000">th1</text>
  <text xml:space="preserve" text-anchor="start" font-family="Helvetica, Arial, sans-serif" font-size="20" id="svg_26" y="142.8569" x="88.71395" fill-opacity="null" stroke-opacity="null" stroke-width="0" stroke="#000" fill="#000000">th2</text>
  <path transform="rotate(45, 157.286, 101.428)" d="m162.52646,111.38765c0,-0.40651 0,-1.21952 0,-1.62604c0,-1.2195 0,-2.03253 0,-2.43902c0,-0.40651 -1.31023,-1.62604 -1.31023,-2.03253c0,-0.81303 -0.40076,-0.9703 -0.87348,-2.03255c-0.33426,-0.75111 -0.40076,-1.78328 -0.87349,-2.84554c-0.33426,-0.75111 -0.12792,-0.93209 -0.43674,-1.21952c-0.61764,-0.57487 -1.0014,-0.52557 -1.31022,-0.81301c-0.30883,-0.28746 -0.41717,-0.62973 -0.87349,-2.03253c-0.12656,-0.38908 0,-0.81301 0,-1.21952c0,-0.81301 -0.56465,-0.93206 -0.87348,-1.21952c-0.30883,-0.28746 -1.00141,0.28744 -1.31023,0c-0.30882,-0.28744 0,-1.21952 -0.43674,-1.21952c0,0 -0.43675,0 -0.87349,0c-0.43674,0 -0.43674,-0.81301 -1.31022,-0.81301l0,-0.40649l0,0" id="svg_30" fill-opacity="null" stroke-opacity="null" stroke-width="1.5" stroke="#000" fill="none"/>
  <path transform="rotate(105, 77.8568, 114.773)" d="m105.85685,137.14257c0,0 -0.54581,-0.88522 -1.14286,-2.85715c-0.33118,-1.09381 0,-1.71426 0,-2.85715c0,-0.57141 0,-1.71429 0,-2.28571c0,-1.14285 0,-2.28574 0,-2.85715c0,-1.14288 -1.66721,-4.79251 -2.28572,-6.28574c-0.21868,-0.52795 -0.16738,-0.7388 -0.57143,-1.14285c-0.80812,-0.80814 -3.20158,-1.90369 -5.14287,-4.00003c-5.06226,-5.46661 -7.1919,-12.90619 -8.00002,-13.71429c-0.40406,-0.40405 -1.27809,0.53928 -2.28572,0c-1.81654,-0.97217 -2.28571,-1.71429 -4.57144,-4.00003c-2.28571,-2.28571 -3.42857,-2.28571 -3.42857,-2.28571c-0.57143,0 -3.40448,-1.07458 -6.85716,-2.28574c-1.07844,-0.3783 -1.14286,0 -2.28572,0c-0.57143,0 -2.28572,0 -3.42858,0c-3.42857,0 -4.00001,0 -4.57143,0c-0.57143,0 -0.97829,0.56094 -4.00002,1.14288c-0.56112,0.10806 -0.57143,0.57141 -1.71429,0.57141c-0.57143,0 -0.73879,0.16736 -1.14286,0.57144c-0.40407,0.40405 -0.73882,0.16736 -1.14286,0.57141c-0.80812,0.80814 -2.28572,0 -2.85715,1.14288l-0.57143,0l0,0" id="svg_32" fill-opacity="null" stroke-opacity="null" stroke-width="1.5" stroke="#000" fill="none"/>
  <text xml:space="preserve" text-anchor="start" font-family="Helvetica, Arial, sans-serif" font-size="14" id="svg_33" y="45.14282" x="120" fill-opacity="null" stroke-opacity="null" stroke-width="0" stroke="#000" fill="#000000">Default in radians, unless said otherwise</text>
  <text xml:space="preserve" text-anchor="start" font-family="Helvetica, Arial, sans-serif" font-size="14" id="svg_36" y="30.14282" x="120" fill-opacity="null" stroke-opacity="null" stroke-width="0" stroke="#000" fill="#000000">Angles: CCW measured from x-axis</text>
  <text xml:space="preserve" text-anchor="start" font-family="Helvetica, Arial, sans-serif" font-size="14" id="svg_38" y="60.14282" x="120" fill-opacity="null" stroke-opacity="null" stroke-width="0" stroke="#000" fill="#000000">th1 = thur = right thigh, th2 = thul = left thigh</text>
  <line transform="rotate(0.731442, 119, 104.643)" stroke-linecap="undefined" stroke-linejoin="undefined" id="svg_39" y2="91.46778" x2="66.0422" y1="117.81778" x1="171.95765" stroke-width="2" stroke="#005fbf" fill="none"/>
  <text xml:space="preserve" text-anchor="start" font-family="Helvetica, Arial, sans-serif" font-size="14" id="svg_40" y="309.71491" x="190.28589" fill-opacity="null" stroke-opacity="null" stroke-width="0" stroke="#000" fill="#000000">Default in radians, unless said otherwise</text>
  <text xml:space="preserve" text-anchor="start" font-family="Helvetica, Arial, sans-serif" font-size="14" id="svg_41" y="290.14347" x="190.28589" fill-opacity="null" stroke-opacity="null" stroke-width="0" stroke="#000" fill="#000000">Angles: CCW measured from x-axis</text>
  <text xml:space="preserve" text-anchor="start" font-family="Helvetica, Arial, sans-serif" font-size="14" id="svg_43" y="329.85778" x="190.28589" fill-opacity="null" stroke-opacity="null" stroke-width="0" stroke="#000" fill="#000000">th1 = thur = right thigh</text>
  <text xml:space="preserve" text-anchor="start" font-family="Helvetica, Arial, sans-serif" font-size="14" id="svg_44" y="349.85783" x="190.28589" fill-opacity="null" stroke-opacity="null" stroke-width="0" stroke="#000" fill="#000000">th2 = thul = left thigh</text>
 </g>
</svg>